<svg width="328" height="72" viewBox="0 0 328 72" fill="none" xmlns="http://www.w3.org/2000/svg">
<path d="M66.8217 9.39847C79.5872 11.3021 95.2916 6.46977 95.2916 6.46977C86.3985 11.7632 77.4684 15.9962 66.0107 16.5454C67.1755 11.736 66.8217 9.39847 66.8217 9.39847ZM53.1642 0.836914C50.0734 2.25925 46.2368 5.3832 44.8306 10C49.7618 17.0276 58.5565 16.412 63.0331 16.6845C64.392 11.3925 64.0919 8.97081 64.0919 8.97081C54.057 8.05422 51.7363 3.68834 53.1642 0.836914ZM0 47.7041C73.7896 73.4157 90.8396 24.4951 142 24.4951C88.7642 33.1185 72.8841 83.5076 0 47.7041ZM22.7044 28.7596L36.6156 51.6959C42.0079 53.9303 67.0829 56.733 81.0132 42.4107C64.0879 53.8462 39.6617 49.7285 37.4611 47.7041C33.9424 44.435 32.8479 41.5199 28.5897 33.565C47.496 35.9132 76.2978 36.6875 98.4392 22.4033C89.412 27.2858 64.9411 38.5219 22.7044 28.7596ZM9.87454 9.02376C82.0881 43.3778 94.5203 8.84339 127.562 8.84339C98.2675 10.6508 96.5101 39.3753 21.5723 26.356C19.5301 21.8355 13.2821 13.1823 9.87454 9.02376Z" fill="#01315F"/>
<path d="M110.878 57.0574L110 53.7126H104.201L103.298 57.0574H98L103.823 39.1375H110.256L116.152 57.0574H110.878ZM108.999 49.7576L108.229 46.8279C108.05 46.1768 107.831 45.3346 107.57 44.301C107.318 43.2675 107.151 42.5269 107.07 42.0793C106.997 42.4944 106.85 43.178 106.63 44.1301C106.419 45.0823 105.943 46.9581 105.202 49.7576H108.999ZM122.109 57.3015C121.124 57.3015 120.262 57.0208 119.521 56.4592C118.789 55.8977 118.219 55.0717 117.812 53.9812C117.413 52.8907 117.214 51.6171 117.214 50.1604C117.214 47.9143 117.666 46.1565 118.569 44.887C119.472 43.6174 120.713 42.9827 122.292 42.9827C123.065 42.9827 123.741 43.1373 124.318 43.4465C124.904 43.7558 125.437 44.2766 125.917 45.009H126.015C125.861 43.9267 125.783 42.8443 125.783 41.762V38.0632H130.593V57.0574H126.992L125.966 55.3118H125.783C124.961 56.6383 123.736 57.3015 122.109 57.3015ZM124.062 53.5295C124.827 53.5295 125.364 53.2895 125.673 52.8093C125.991 52.3292 126.162 51.5886 126.186 50.5876V50.2092C126.186 48.9885 126.011 48.1218 125.661 47.6091C125.311 47.0883 124.762 46.8279 124.013 46.8279C123.387 46.8279 122.898 47.1249 122.548 47.719C122.207 48.3049 122.036 49.1431 122.036 50.2336C122.036 51.3079 122.211 52.1257 122.561 52.6873C122.91 53.2488 123.411 53.5295 124.062 53.5295ZM137.526 57.0574L132.253 43.2268H137.233L139.577 51.4055C139.585 51.4462 139.602 51.5154 139.626 51.613C139.65 51.7107 139.675 51.8287 139.699 51.967C139.724 52.0972 139.744 52.2397 139.76 52.3943C139.785 52.5408 139.797 52.6791 139.797 52.8093H139.882C139.882 52.3861 139.956 51.9264 140.102 51.4299L142.556 43.2268H147.524L142.25 57.0574H137.526ZM157.241 57.0574L153.591 44.2034H153.481C153.652 46.3925 153.737 48.0933 153.737 49.3059V57.0574H149.465V39.2107H155.886L159.609 51.8816H159.707L163.356 39.2107H169.79V57.0574H165.358V49.2327C165.358 48.8258 165.362 48.3741 165.371 47.8777C165.387 47.3813 165.444 46.1646 165.542 44.2278H165.432L161.831 57.0574H157.241ZM182.375 57.0574L181.459 55.2263H181.362C180.719 56.0238 180.064 56.5691 179.396 56.8621C178.729 57.155 177.867 57.3015 176.809 57.3015C175.507 57.3015 174.481 56.9109 173.732 56.1296C172.984 55.3484 172.609 54.2498 172.609 52.8337C172.609 51.3608 173.122 50.2662 174.147 49.55C175.173 48.8258 176.658 48.4189 178.603 48.3293L180.91 48.2561V48.0608C180.91 46.9215 180.349 46.3518 179.226 46.3518C178.216 46.3518 176.935 46.6936 175.38 47.3772L174.001 44.2278C175.612 43.3977 177.647 42.9827 180.104 42.9827C181.879 42.9827 183.25 43.4221 184.218 44.301C185.195 45.1799 185.683 46.4088 185.683 47.9875V57.0574H182.375ZM178.835 53.9324C179.413 53.9324 179.905 53.7493 180.312 53.3831C180.727 53.0168 180.935 52.5408 180.935 51.9548V50.8806L179.836 50.9294C178.265 50.9864 177.48 51.5642 177.48 52.6628C177.48 53.5092 177.932 53.9324 178.835 53.9324ZM197.28 42.9827C197.695 42.9827 198.09 43.0152 198.464 43.0803L198.732 43.1292L198.305 47.6335C197.915 47.5359 197.373 47.4871 196.682 47.4871C195.64 47.4871 194.883 47.7271 194.411 48.2073C193.939 48.6793 193.703 49.3629 193.703 50.2581V57.0574H188.93V43.2268H192.482L193.227 45.4363H193.459C193.858 44.7039 194.411 44.1139 195.119 43.6663C195.835 43.2105 196.556 42.9827 197.28 42.9827ZM205.471 57.0574H200.698V43.2268H205.471V57.0574ZM200.576 39.7844C200.576 39.0683 200.775 38.5352 201.174 38.1853C201.573 37.8354 202.215 37.6604 203.103 37.6604C203.99 37.6604 204.637 37.8394 205.043 38.1975C205.45 38.5556 205.654 39.0846 205.654 39.7844C205.654 41.1842 204.803 41.884 203.103 41.884C201.418 41.884 200.576 41.1842 200.576 39.7844ZM217.531 57.0574V49.5134C217.531 48.5938 217.397 47.9021 217.128 47.4382C216.868 46.9662 216.445 46.7302 215.859 46.7302C215.053 46.7302 214.471 47.0517 214.113 47.6946C213.755 48.3375 213.576 49.4402 213.576 51.0027V57.0574H208.803V43.2268H212.404L213.002 44.9358H213.283C213.69 44.2847 214.252 43.7965 214.968 43.4709C215.692 43.1454 216.522 42.9827 217.458 42.9827C218.988 42.9827 220.176 43.4262 221.022 44.3132C221.877 45.2003 222.304 46.4495 222.304 48.0608V57.0574H217.531ZM232.229 57.3015C229.925 57.3015 228.135 56.6912 226.857 55.4705C225.588 54.2416 224.953 52.496 224.953 50.2336C224.953 47.898 225.543 46.1077 226.723 44.8625C227.903 43.6093 229.588 42.9827 231.777 42.9827C233.86 42.9827 235.467 43.5279 236.599 44.6184C237.738 45.7008 238.308 47.2633 238.308 49.3059V51.4299H229.775C229.807 52.203 230.088 52.8093 230.617 53.2488C231.154 53.6882 231.883 53.908 232.802 53.908C233.64 53.908 234.41 53.8306 235.109 53.676C235.817 53.5133 236.582 53.2406 237.404 52.8582V56.2883C236.656 56.6708 235.882 56.9353 235.085 57.0818C234.287 57.2283 233.335 57.3015 232.229 57.3015ZM231.948 46.2297C231.386 46.2297 230.914 46.4088 230.532 46.7668C230.157 47.1168 229.938 47.6702 229.873 48.427H233.974C233.958 47.7597 233.767 47.2266 233.4 46.8279C233.042 46.4291 232.558 46.2297 231.948 46.2297Z" fill="black"/>
</svg>
